<svg width="50" height="50" viewBox="0 0 50 50" fill="none" xmlns="http://www.w3.org/2000/svg">
<rect width="50" height="50" rx="15" fill="white"/>
<path d="M10.1042 45.8333V24.8958L9.37499 24.1666C8.99305 23.7847 8.72395 23.3854 8.5677 22.9687C8.41145 22.552 8.33333 22.1007 8.33333 21.6145C8.33333 21.1284 8.41145 20.6684 8.5677 20.2343C8.72395 19.8003 8.99305 19.3923 9.37499 19.0104L16.0417 12.2916H25.4167L33.5417 4.16663L37.4479 8.07288C38.8021 9.42704 39.8177 10.9809 40.4948 12.7343C41.1719 14.4878 41.5278 16.25 41.5625 18.0208C41.5278 19.7916 41.1719 21.5538 40.4948 23.3073C39.8177 25.0607 38.8021 26.6145 37.4479 27.9687L33.0208 32.3958V45.8333H10.1042ZM13.2292 42.7083H29.8958V31.0937L35.2083 25.7812C36.2847 24.7048 37.092 23.4982 37.6302 22.1614C38.1684 20.8246 38.4375 19.4444 38.4375 18.0208C38.4375 16.5972 38.1684 15.2257 37.6302 13.9062C37.092 12.5868 36.2847 11.3888 35.2083 10.3125L33.5417 8.59371L26.7187 15.4166H17.3437L15.625 17.1354L19.4792 20.9895C20.4514 21.9618 21.1805 23.0468 21.6667 24.2447C22.1528 25.4427 22.3958 26.684 22.3958 27.9687C22.3958 29.184 22.1875 30.3645 21.7708 31.5104C21.3542 32.6562 20.7118 33.6979 19.8437 34.6354L13.2292 28.0208V42.7083Z" fill="black"/>
</svg>
